# xmcd
#
# Track frame offsets: 
#        150
#        16775
#        32642
#        50299
#        62925
#        78959
#        96179
#        128407
#        159502
#        172406
#        192141
#        210582
#        259166
#
# Disc length: 4440 seconds
#
# Revision: 15
# Processed by: cddbd v1.5.2PL0 Copyright (c) Steve Scherf et al.
# Submitted via: ExactAudioCopy v1.3
#
DISCID=a611560d
DTITLE=N.E.R.D - Fly Or Die
DYEAR=2004
DGENRE=Hip-Hop
TTITLE0=Don't Worry About It
TTITLE1=Fly Or Die
TTITLE2=Jump (feat. Joel Madden and Benji Madden)
TTITLE3=Backseat Love
TTITLE4=She Wants To Move
TTITLE5=Breakout
TTITLE6=Wonderful Place
TTITLE7=Drill Sergeant
TTITLE8=Thrasher
TTITLE9=Maybe
TTITLE10=The Way She Dances
TTITLE11=Chariot Of Fire
TTITLE12=Data
EXTD=YEAR: 2004
EXTT0=
EXTT1=
EXTT2=
EXTT3=
EXTT4=
EXTT5=
EXTT6=
EXTT7=
EXTT8=
EXTT9=
EXTT10=
EXTT11=
EXTT12=
PLAYORDER=
